<svg width="86" height="54" viewBox="0 0 86 54" fill="none" xmlns="http://www.w3.org/2000/svg">
<path d="M85.5162 43.6707C82.05 49.7801 75.4373 53.9549 67.9405 53.995H67.8356C62.3616 53.9649 57.3821 51.6946 53.766 48.041C53.766 48.041 53.761 48.036 53.756 48.0309C55.0546 46.7379 56.1784 45.2694 57.0874 43.6657C58.5608 41.1798 56.3382 39.3806 55.599 39.0448C54.2355 38.2629 50.6794 37.1152 50.6794 37.1152C50.6794 37.1152 50.5546 37.0601 50.3348 37.01C50.3148 37.01 50.2998 37 50.2799 37C50.2749 37 50.2649 37 50.2599 37C50.185 36.9849 50.1001 36.9749 50.0102 36.9649C49.5557 36.9198 48.9164 36.9549 48.2121 37.2907C48.2121 37.2856 48.2121 37.2806 48.2121 37.2756C47.9924 36.0026 47.8875 34.6895 47.9174 33.3514C47.9174 32.6096 47.9474 31.903 48.0573 31.0911C48.2121 29.9534 48.4619 28.8458 48.8015 27.7732C49.0063 27.0666 49.236 26.4201 49.4907 25.9239C52.4774 18.9625 59.295 13.9808 67.1763 13.675C70.0582 13.5648 72.7852 14.1211 75.2974 15.0984C76.1515 15.4292 76.5111 15.5094 77.2603 16.0156C79.353 17.4339 79.6227 19.1429 79.0133 20.7768L76.2963 25.142C75.2774 26.5053 73.4445 27.0616 71.4566 26.0943C71.4566 26.0943 70.0732 25.3876 68.7846 25.2824C63.9798 24.8814 59.7245 28.6353 59.4948 33.4667C59.26 38.3632 63.1457 42.4027 67.9705 42.4027C70.9772 42.4027 73.5044 40.6586 74.6132 39.0799C76.7159 36.0828 79.0983 37.1203 79.0983 37.1203C79.0983 37.1203 82.6544 38.268 84.0179 39.0498C84.757 39.3856 86.9796 41.1798 85.5062 43.6707H85.5162Z" fill="white"/>
<path d="M31.2657 7.74108C31.1858 10.9887 28.5037 10.8334 28.5037 10.8334H19.6135C19.6135 10.8334 19.5885 10.8334 19.5735 10.8334H18.9392V10.8384C18.9292 10.8384 18.9193 10.8384 18.9093 10.8384C18.0852 10.8384 17.4209 11.515 17.4259 12.3419L17.4309 12.5775C17.4309 12.8431 17.4958 13.0937 17.6157 13.3092C17.6606 13.4094 17.7256 13.4996 17.8005 13.5748C18.0702 13.8855 18.4598 14.081 18.9043 14.086C18.9143 14.086 18.9242 14.086 18.9342 14.086H19.2689C19.5086 14.1011 19.6934 14.096 19.7433 14.096H23.8289C25.4671 14.086 27.1253 14.071 27.1253 14.071C28.6785 14.076 29.7274 14.5722 29.9022 16.1709C29.9022 16.1709 29.9022 16.1709 29.8972 16.1709C28.5737 16.9077 27.335 17.7897 26.2162 18.7971C24.0386 20.8419 22.4254 23.3278 21.3066 25.4277L21.3016 25.4377H19.129C18.5197 25.4728 18.1701 25.7635 17.9753 26.1043C17.9753 26.1043 17.9753 26.1043 17.9753 26.1093C17.9653 26.1244 17.9553 26.1344 17.9503 26.1494C17.8055 26.38 17.7256 26.6506 17.7256 26.9413C17.7256 26.9513 17.7256 26.9613 17.7256 26.9714V27.0766C17.7256 27.0766 17.7256 27.0916 17.7256 27.0967V51.4089C17.7256 51.5342 17.7256 51.7246 17.6956 51.9402C17.6407 53.0528 16.7317 53.9399 15.6079 53.9449C15.533 53.9549 15.463 53.9649 15.3831 53.9699H6.81253C6.71763 53.9649 6.62773 53.9549 6.53783 53.9449H6.51785C5.35413 53.9399 4.42015 52.9876 4.42515 51.8199C4.42515 51.7848 4.42515 51.7547 4.42515 51.7196C4.42515 51.7046 4.42515 51.6896 4.42515 51.6745V51.6144C4.42515 51.4991 4.42515 51.3889 4.42515 51.2836V26.9764C4.42515 26.9764 4.42515 26.9563 4.42515 26.9463C4.42515 26.1194 3.75588 25.4478 2.93178 25.4478C2.89682 25.4478 2.86186 25.4478 2.83189 25.4478H1.87794C1.86296 25.4478 1.84797 25.4428 1.83299 25.4377H1.51334C1.50335 25.4377 1.49336 25.4377 1.48337 25.4377C0.659277 25.4327 0 24.7561 0 23.9292C0 23.8941 0 23.859 0.00499452 23.829H0V15.7048C0.00499452 15.6547 0.00998904 15.6046 0.0149836 15.5595C0.0699233 14.7776 0.719211 14.1612 1.51334 14.1662C1.5483 14.1662 1.58326 14.1662 1.61323 14.1712H1.97783C1.98782 14.1712 1.99781 14.1712 2.0078 14.1712H2.89183C2.92679 14.1712 2.95676 14.1762 2.99172 14.1762C3.81582 14.1762 4.49008 13.5147 4.49507 12.6877C4.49507 12.6777 4.49507 12.6677 4.49507 12.6577L4.50006 11.7004C4.52504 11.3847 4.52004 11.104 4.54002 10.9135C4.85468 7.72604 5.84359 5.25522 7.6616 3.43093C9.98405 1.09543 13.1006 0.228386 17.5957 0.032926C20.3127 -0.0873572 25.8367 0.123138 28.7535 0.644366C30.7912 1.01023 31.2357 2.47367 31.2357 3.54119L31.2657 7.74108Z" fill="white"/>
<path d="M48.2221 37.2957C48.9413 41.4505 50.9341 45.1692 53.766 48.036C53.761 48.046 53.7511 48.051 53.7411 48.061C50.0851 51.6946 45.0406 53.9699 39.5217 54H39.4168C28.3139 53.9399 19.2389 44.663 19.5036 33.3313C19.5036 33.3313 19.5036 33.3263 19.5036 33.3213C19.5036 32.5896 19.5336 31.898 19.6435 31.0961C19.9132 29.1064 20.4775 27.2069 21.2917 25.4428C21.2917 25.4428 21.2966 25.4428 21.3066 25.4428C21.6163 25.4478 27.0853 25.4428 27.0853 25.4428C29.1031 25.4428 29.8722 24.4354 29.9172 22.7715C29.9172 22.7514 29.9172 22.7314 29.9172 22.7113C29.9172 22.6462 29.9172 22.5309 29.9172 22.3755C29.9172 22.3605 29.9172 22.3405 29.9172 22.3204V22.1901C29.9172 22.1249 29.9172 22.0498 29.9172 21.9696C29.9172 20.5663 29.9122 17.3387 29.9172 16.4165C29.9172 16.3313 29.9072 16.2511 29.8972 16.1709C32.5543 14.6975 35.566 13.8054 38.7575 13.6851C41.6393 13.5748 44.3663 14.1311 46.8786 15.1084C47.7327 15.4392 48.0923 15.5194 48.8414 16.0256C50.9341 17.4489 51.2038 19.1529 50.5945 20.7868L47.8775 25.1521C46.8586 26.5153 45.0206 27.0716 43.0328 26.1043C43.0328 26.1043 41.6493 25.3977 40.3607 25.2924C35.556 24.8915 31.3007 28.6453 31.0709 33.4767C30.8362 38.3732 34.7219 42.4177 39.5466 42.4177C42.5533 42.4177 45.0806 40.6736 46.1893 39.0949C46.8636 38.1376 47.5628 37.5914 48.2071 37.2907" fill="white"/>
</svg>
